HIERARCHY
ROOT Hips
{
	OFFSET 0.00000 0.00000 0.00000
	CHANNELS 6 Xposition Yposition Zposition Zrotation Yrotation Xrotation 
	JOINT LHipJoint
	{
		OFFSET 0 0 0
		CHANNELS 3 Zrotation Yrotation Xrotation
		JOINT LeftUpLeg
		{
			OFFSET 1.09156 -1.61406 0.76500
			CHANNELS 3 Zrotation Yrotation Xrotation
			JOINT LeftLeg
			{
				OFFSET 2.33750 -6.42225 0.00000
				CHANNELS 3 Zrotation Yrotation Xrotation
				JOINT LeftFoot
				{
					OFFSET 2.49247 -6.84800 0.00000
					CHANNELS 3 Zrotation Yrotation Xrotation
					JOINT LeftToeBase
					{
						OFFSET 0.15312 -0.42069 1.45461
						CHANNELS 3 Zrotation Yrotation Xrotation
						End Site
						{
							OFFSET 0.00000 -0.00000 0.77046
						}
					}
				}
			}
		}
	}
	JOINT RHipJoint
	{
		OFFSET 0 0 0
		CHANNELS 3 Zrotation Yrotation Xrotation
		JOINT RightUpLeg
		{
			OFFSET -0.99883 -1.61406 0.76500
			CHANNELS 3 Zrotation Yrotation Xrotation
			JOINT RightLeg
			{
				OFFSET -2.36877 -6.50815 0.00000
				CHANNELS 3 Zrotation Yrotation Xrotation
				JOINT RightFoot
				{
					OFFSET -2.53452 -6.96353 0.00000
					CHANNELS 3 Zrotation Yrotation Xrotation
					JOINT RightToeBase
					{
						OFFSET -0.13156 -0.36145 1.63237
						CHANNELS 3 Zrotation Yrotation Xrotation
						End Site
						{
							OFFSET -0.00000 -0.00000 0.84979
						}
					}
				}
			}
		}
	}
	JOINT LowerBack
	{
		OFFSET 0 0 0
		CHANNELS 3 Zrotation Yrotation Xrotation
		JOINT Spine
		{
			OFFSET -0.02431 1.98242 -0.13616
			CHANNELS 3 Zrotation Yrotation Xrotation
			JOINT Spine1
			{
				OFFSET 0.03629 1.98974 -0.02954
				CHANNELS 3 Zrotation Yrotation Xrotation
				JOINT Neck
				{
					OFFSET 0 0 0
					CHANNELS 3 Zrotation Yrotation Xrotation
					JOINT Neck1
					{
						OFFSET 0.09349 1.40783 0.22333
						CHANNELS 3 Zrotation Yrotation Xrotation
						JOINT Head
						{
							OFFSET -0.04273 1.44500 -0.06495
							CHANNELS 3 Zrotation Yrotation Xrotation
							End Site
							{
								OFFSET -0.02251 1.44600 -0.04544
							}
						}
					}
				}
				JOINT LeftShoulder
				{
					OFFSET 0 0 0
					CHANNELS 3 Zrotation Yrotation Xrotation
					JOINT LeftArm
					{
						OFFSET 3.49137 0.85126 -0.29740
						CHANNELS 3 Zrotation Yrotation Xrotation
						JOINT LeftForeArm
						{
							OFFSET 5.06035 -0.00000 0.00000
							CHANNELS 3 Zrotation Yrotation Xrotation
							JOINT LeftHand
							{
								OFFSET 3.14780 -0.00000 0.00000
								CHANNELS 3 Zrotation Yrotation Xrotation
								JOINT LeftFingerBase
								{
									OFFSET 0 0 0
									CHANNELS 3 Zrotation Yrotation Xrotation
									JOINT LeftHandIndex1
									{
										OFFSET 0.60675 -0.00000 0.00000
										CHANNELS 3 Zrotation Yrotation Xrotation
										End Site
										{
											OFFSET 0.48918 -0.00000 0.00000
										}
									}
								}
								JOINT LThumb
								{
									OFFSET 0 0 0
									CHANNELS 3 Zrotation Yrotation Xrotation
									End Site
									{
										OFFSET 0.49664 -0.00000 0.49664
									}
								}
							}
						}
					}
				}
				JOINT RightShoulder
				{
					OFFSET 0 0 0
					CHANNELS 3 Zrotation Yrotation Xrotation
					JOINT RightArm
					{
						OFFSET -3.28101 0.69707 0.00747
						CHANNELS 3 Zrotation Yrotation Xrotation
						JOINT RightForeArm
						{
							OFFSET -5.12273 -0.00000 -0.00000
							CHANNELS 3 Zrotation Yrotation Xrotation
							JOINT RightHand
							{
								OFFSET -3.42200 -0.00000 0.00000
								CHANNELS 3 Zrotation Yrotation Xrotation
								JOINT RightFingerBase
								{
									OFFSET 0 0 0
									CHANNELS 3 Zrotation Yrotation Xrotation
									JOINT RightHandIndex1
									{
										OFFSET -0.70460 -0.00000 0.00000
										CHANNELS 3 Zrotation Yrotation Xrotation
										End Site
										{
											OFFSET -0.56807 -0.00000 0.00000
										}
									}
								}
								JOINT RThumb
								{
									OFFSET 0 0 0
									CHANNELS 3 Zrotation Yrotation Xrotation
									End Site
									{
										OFFSET -0.57674 -0.00000 0.57674
									}
								}
							}
						}
					}
				}
			}
		}
	}
}
MOTION
Frames: 6
Frame Time: .0083333
6.3826 30.1315 1.2034 0 0 0 0 0 0 -21 0 0 0 0 0 0 0 0 0 0 0 0 0 0 21 0 0 0 0 0 0 0 0 0 0 0 0 0 0 0 0 0 0 0 0 0 0 -16 0 0 21 0 0 11 0 0 0 -8 0 0 0 0 0 0 0 0 0 0 0 0 0 0 0 0 0 0 0 0 8 0 0 0 0 0 0 0 0 0 0 0 0 0 0 0 0 0
6.3826 30.1315 1.2034 5.0735 77.9389 12.1873 0.0000 0.0000 0.0000 -21.1215 -5.1909 -9.8419 1.9548 8.7713 25.0827 2.2767 1.2392 -29.0132 3.2157 11.0363 32.4025 0.0000 0.0000 0.0000 16.0347 6.3906 -11.1528 -1.9052 -8.6657 24.7552 -1.0826 -0.3367 -19.7961 -0.4374 4.2441 -11.7643 -7.0204 -2.2387 -3.0595 0.6321 -2.6365 2.7801 4.3961 -1.5573 4.9731 -0.3793 1.9027 -14.0597 3.2398 2.2906 7.2436 1.2428 1.3263 4.4070 0.0000 -0.0000 0.0000 -87.9786 -7.0082 15.1642 10.8984 -18.1324 -1.7442 -0.0000 -0.0000 3.1094 17.2621 43.4214 12.0566 -7.1250 0.0000 -0.0000 -33.2946 72.3337 -22.3103 0.0000 -0.0000 0.0000 89.3942 -2.2023 6.8234 -17.4356 27.4284 -4.2861 0.0000 0.0000 7.7085 -20.6387 29.7056 -10.5723 7.1250 -0.0000 -0.0000 5.9563 1.2384 6.1166
6.3747 30.1336 1.2099 4.5351 78.1949 11.7062 0.0000 0.0000 0.0000 -20.8820 -5.0846 -10.0419 1.9686 8.8003 25.1725 2.2660 0.8545 -28.8085 3.2599 11.1043 32.6325 0.0000 0.0000 0.0000 16.2352 6.4525 -11.1104 -1.8938 -8.6412 24.6792 -1.0851 -0.5792 -19.9077 -0.4981 4.5246 -12.5575 -6.9395 -2.2508 -2.8606 0.7521 -2.6805 2.7098 4.4815 -1.5717 4.7930 -0.7145 1.9037 -14.0194 3.4103 2.3397 7.1377 1.3514 1.3505 4.3607 0.0000 -0.0000 0.0000 -88.1954 -6.8540 14.8190 10.8939 -18.1255 -1.7428 -0.0000 -0.0000 3.4240 17.1338 43.6385 12.0106 -7.1250 0.0000 -0.0000 -33.9071 72.4553 -22.8330 0.0000 -0.0000 0.0000 89.2180 -2.3895 7.1222 -17.5838 27.6210 -4.3546 0.0000 0.0000 7.3857 -20.5815 29.3649 -10.4334 7.1250 -0.0000 -0.0000 5.9467 0.8794 6.0698
6.3698 30.1347 1.2173 4.3348 78.3633 11.5569 0.0000 0.0000 0.0000 -20.7441 -4.9980 -10.2083 1.9787 8.8216 25.2387 2.2671 0.5650 -28.7158 3.2977 11.1621 32.8286 0.0000 0.0000 0.0000 16.3448 6.4948 -11.0907 -1.8818 -8.6154 24.5994 -1.0785 -0.8260 -19.9414 -0.5177 4.6114 -12.8034 -6.8538 -2.1033 -2.3800 0.7475 -2.5323 2.4770 4.4620 -1.4721 4.2499 -0.8349 1.7978 -14.1941 3.5769 2.1986 7.3201 1.4160 1.2908 4.4454 0.0000 -0.0000 0.0000 -88.2723 -8.4872 13.1975 9.7678 -16.3756 -1.4088 -0.0000 -0.0000 5.4716 17.0969 43.8934 12.0381 -7.1250 0.0000 -0.0000 -34.5092 72.6360 -23.3945 0.0000 -0.0000 0.0000 89.2628 -2.7851 6.9502 -17.6505 27.7073 -4.3855 0.0000 0.0000 7.1940 -20.5389 29.3216 -10.3967 7.1250 -0.0000 -0.0000 5.9660 0.8270 6.0844
6.3692 30.1345 1.2252 4.1147 78.5088 11.3554 0.0000 0.0000 0.0000 -20.6114 -4.9177 -10.3061 1.9858 8.8365 25.2851 2.2705 0.2802 -28.6419 3.3012 11.1674 32.8466 0.0000 0.0000 0.0000 16.4688 6.6296 -11.0149 -1.8748 -8.6002 24.5524 -1.0560 -1.2412 -19.9016 -0.4974 4.5215 -12.5487 -6.7765 -2.1550 -2.9652 0.7348 -2.5529 2.7003 4.3789 -1.5031 4.8159 -0.6718 1.8864 -13.7275 3.5792 2.2897 7.2464 1.3903 1.3364 4.3471 -0.0000 -0.0000 0.0000 -88.1332 -6.3807 14.7739 10.9872 -18.2687 -1.7719 -0.0000 -0.0000 3.4742 17.8976 44.0486 12.6550 -7.1250 0.0000 -0.0000 -33.9609 73.0401 -23.2840 -0.0000 -0.0000 0.0000 89.2877 -2.5130 6.9876 -17.4937 27.5040 -4.3129 0.0000 0.0000 7.4481 -20.4732 29.4025 -10.3867 7.1250 -0.0000 -0.0000 6.0143 0.8969 6.1414
6.3684 30.1330 1.2304 4.1236 78.6691 11.3836 0.0000 0.0000 0.0000 -20.5481 -4.8240 -10.3883 1.9872 8.8394 25.2943 2.2631 0.0531 -28.5212 3.2727 11.1240 32.6991 0.0000 0.0000 0.0000 16.5244 6.7079 -10.9620 -1.8726 -8.5956 24.5383 -1.0481 -1.4681 -19.9241 -0.4259 4.1882 -11.6068 -6.8227 -2.1086 -2.3040 0.7928 -2.5580 2.2381 4.4977 -1.4700 3.9600 -0.7545 1.8622 -13.5279 3.5896 2.2651 7.4526 1.4045 1.3217 4.3780 -0.0000 -0.0000 0.0000 -88.2990 -6.1089 14.0751 10.6562 -17.7594 -1.6696 -0.0000 -0.0000 3.9773 19.2037 43.4354 13.4673 -7.1250 0.0000 -0.0000 -31.0904 73.0342 -21.2075 -0.0000 -0.0000 0.0000 89.2348 -3.2902 7.1133 -17.5068 27.5211 -4.3189 0.0000 0.0000 7.4694 -20.4339 29.4508 -10.3806 7.1250 -0.0000 -0.0000 6.0431 0.9386 6.1755
